<svg width="176" height="44" viewBox="0 0 176 44" fill="none" xmlns="http://www.w3.org/2000/svg">
<path d="M1.368 28.78C1.704 29.02 2.268 29.284 3.06 29.572C3.852 29.86 4.764 30.004 5.796 30.004C6.804 30.004 7.608 29.836 8.208 29.5C8.808 29.14 9.264 28.6 9.576 27.88C9.888 27.16 10.092 26.272 10.188 25.216C10.284 24.136 10.332 22.876 10.332 21.436V8.44H15.3V21.436C15.3 23.38 15.192 25.156 14.976 26.764C14.784 28.348 14.352 29.704 13.68 30.832C13.032 31.96 12.084 32.836 10.836 33.46C9.588 34.084 7.908 34.396 5.796 34.396C3.636 34.396 1.788 33.868 0.252 32.812L1.368 28.78ZM28.3103 34.36C26.7743 34.36 25.3943 34.096 24.1703 33.568C22.9463 33.04 21.9023 32.332 21.0383 31.444C20.1983 30.532 19.5503 29.488 19.0943 28.312C18.6383 27.136 18.4103 25.9 18.4103 24.604C18.4103 23.284 18.6383 22.036 19.0943 20.86C19.5503 19.684 20.1983 18.652 21.0383 17.764C21.9023 16.852 22.9463 16.132 24.1703 15.604C25.3943 15.076 26.7743 14.812 28.3103 14.812C29.8463 14.812 31.2143 15.076 32.4143 15.604C33.6383 16.132 34.6703 16.852 35.5103 17.764C36.3743 18.652 37.0343 19.684 37.4903 20.86C37.9463 22.036 38.1743 23.284 38.1743 24.604C38.1743 25.9 37.9463 27.136 37.4903 28.312C37.0343 29.488 36.3863 30.532 35.5463 31.444C34.7063 32.332 33.6743 33.04 32.4503 33.568C31.2263 34.096 29.8463 34.36 28.3103 34.36ZM23.3783 24.604C23.3783 25.444 23.4983 26.212 23.7383 26.908C24.0023 27.58 24.3503 28.168 24.7823 28.672C25.2383 29.176 25.7663 29.572 26.3663 29.86C26.9663 30.124 27.6143 30.256 28.3103 30.256C29.0063 30.256 29.6543 30.124 30.2543 29.86C30.8543 29.572 31.3703 29.176 31.8023 28.672C32.2583 28.168 32.6063 27.568 32.8463 26.872C33.1103 26.176 33.2423 25.408 33.2423 24.568C33.2423 23.752 33.1103 22.996 32.8463 22.3C32.6063 21.604 32.2583 21.004 31.8023 20.5C31.3703 19.996 30.8543 19.612 30.2543 19.348C29.6543 19.06 29.0063 18.916 28.3103 18.916C27.6143 18.916 26.9663 19.06 26.3663 19.348C25.7663 19.636 25.2383 20.032 24.7823 20.536C24.3503 21.04 24.0023 21.64 23.7383 22.336C23.4983 23.032 23.3783 23.788 23.3783 24.604ZM52.1584 34.36C50.7184 34.36 49.4344 34.036 48.3064 33.388C47.1784 32.74 46.2904 31.852 45.6424 30.724V34H41.4304V7.72H46.2544V18.448C46.9264 17.296 47.8024 16.408 48.8824 15.784C49.9864 15.136 51.2704 14.812 52.7344 14.812C53.9584 14.812 55.0744 15.076 56.0824 15.604C57.0904 16.132 57.9544 16.84 58.6744 17.728C59.4184 18.616 59.9824 19.66 60.3664 20.86C60.7744 22.06 60.9784 23.32 60.9784 24.64C60.9784 26.008 60.7504 27.28 60.2944 28.456C59.8624 29.632 59.2504 30.664 58.4584 31.552C57.6664 32.416 56.7304 33.1 55.6504 33.604C54.5704 34.108 53.4064 34.36 52.1584 34.36ZM50.8264 30.256C51.5944 30.256 52.3024 30.112 52.9504 29.824C53.5984 29.512 54.1504 29.104 54.6064 28.6C55.0624 28.096 55.4104 27.508 55.6504 26.836C55.9144 26.164 56.0464 25.444 56.0464 24.676C56.0464 23.908 55.9264 23.176 55.6864 22.48C55.4464 21.784 55.0984 21.172 54.6424 20.644C54.2104 20.116 53.6944 19.696 53.0944 19.384C52.4944 19.072 51.8344 18.916 51.1144 18.916C50.0344 18.916 49.0624 19.276 48.1984 19.996C47.3584 20.692 46.7104 21.556 46.2544 22.588V27.088C46.4224 27.568 46.6624 28 46.9744 28.384C47.3104 28.768 47.6824 29.104 48.0904 29.392C48.4984 29.656 48.9424 29.872 49.4224 30.04C49.9024 30.184 50.3704 30.256 50.8264 30.256ZM74.9748 34.36C73.5348 34.36 72.2508 34.036 71.1228 33.388C69.9948 32.74 69.1068 31.852 68.4588 30.724V34H64.2468V7.72H69.0708V18.448C69.7428 17.296 70.6188 16.408 71.6988 15.784C72.8028 15.136 74.0868 14.812 75.5508 14.812C76.7748 14.812 77.8908 15.076 78.8988 15.604C79.9068 16.132 80.7708 16.84 81.4908 17.728C82.2348 18.616 82.7988 19.66 83.1828 20.86C83.5908 22.06 83.7948 23.32 83.7948 24.64C83.7948 26.008 83.5668 27.28 83.1108 28.456C82.6788 29.632 82.0668 30.664 81.2748 31.552C80.4828 32.416 79.5468 33.1 78.4668 33.604C77.3868 34.108 76.2228 34.36 74.9748 34.36ZM73.6428 30.256C74.4108 30.256 75.1188 30.112 75.7668 29.824C76.4148 29.512 76.9668 29.104 77.4228 28.6C77.8788 28.096 78.2268 27.508 78.4668 26.836C78.7308 26.164 78.8628 25.444 78.8628 24.676C78.8628 23.908 78.7428 23.176 78.5028 22.48C78.2628 21.784 77.9148 21.172 77.4588 20.644C77.0268 20.116 76.5108 19.696 75.9108 19.384C75.3108 19.072 74.6508 18.916 73.9308 18.916C72.8508 18.916 71.8788 19.276 71.0148 19.996C70.1748 20.692 69.5268 21.556 69.0708 22.588V27.088C69.2388 27.568 69.4788 28 69.7908 28.384C70.1268 28.768 70.4988 29.104 70.9068 29.392C71.3148 29.656 71.7588 29.872 72.2388 30.04C72.7188 30.184 73.1868 30.256 73.6428 30.256ZM97.7912 34.36C96.3512 34.36 95.0672 34.036 93.9392 33.388C92.8112 32.74 91.9232 31.852 91.2752 30.724V34H87.0632V7.72H91.8872V18.448C92.5592 17.296 93.4352 16.408 94.5152 15.784C95.6192 15.136 96.9032 14.812 98.3672 14.812C99.5912 14.812 100.707 15.076 101.715 15.604C102.723 16.132 103.587 16.84 104.307 17.728C105.051 18.616 105.615 19.66 105.999 20.86C106.407 22.06 106.611 23.32 106.611 24.64C106.611 26.008 106.383 27.28 105.927 28.456C105.495 29.632 104.883 30.664 104.091 31.552C103.299 32.416 102.363 33.1 101.283 33.604C100.203 34.108 99.0392 34.36 97.7912 34.36ZM96.4592 30.256C97.2272 30.256 97.9352 30.112 98.5832 29.824C99.2312 29.512 99.7832 29.104 100.239 28.6C100.695 28.096 101.043 27.508 101.283 26.836C101.547 26.164 101.679 25.444 101.679 24.676C101.679 23.908 101.559 23.176 101.319 22.48C101.079 21.784 100.731 21.172 100.275 20.644C99.8432 20.116 99.3272 19.696 98.7272 19.384C98.1272 19.072 97.4672 18.916 96.7472 18.916C95.6672 18.916 94.6952 19.276 93.8312 19.996C92.9912 20.692 92.3432 21.556 91.8872 22.588V27.088C92.0552 27.568 92.2952 28 92.6072 28.384C92.9432 28.768 93.3152 29.104 93.7232 29.392C94.1312 29.656 94.5752 29.872 95.0552 30.04C95.5352 30.184 96.0032 30.256 96.4592 30.256ZM118.628 34.36C117.116 34.36 115.748 34.108 114.524 33.604C113.3 33.076 112.256 32.368 111.392 31.48C110.528 30.592 109.856 29.56 109.376 28.384C108.92 27.208 108.692 25.972 108.692 24.676C108.692 23.332 108.92 22.072 109.376 20.896C109.832 19.696 110.492 18.652 111.356 17.764C112.22 16.852 113.264 16.132 114.488 15.604C115.736 15.076 117.128 14.812 118.664 14.812C120.2 14.812 121.568 15.076 122.768 15.604C123.992 16.132 125.024 16.84 125.864 17.728C126.728 18.616 127.376 19.648 127.808 20.824C128.264 22 128.492 23.224 128.492 24.496C128.492 24.808 128.48 25.108 128.456 25.396C128.456 25.684 128.432 25.924 128.384 26.116H113.804C113.876 26.86 114.056 27.52 114.344 28.096C114.632 28.672 115.004 29.164 115.46 29.572C115.916 29.98 116.432 30.292 117.008 30.508C117.584 30.724 118.184 30.832 118.808 30.832C119.768 30.832 120.668 30.604 121.508 30.148C122.372 29.668 122.96 29.044 123.272 28.276L127.412 29.428C126.716 30.868 125.6 32.056 124.064 32.992C122.552 33.904 120.74 34.36 118.628 34.36ZM123.524 22.984C123.404 21.568 122.876 20.44 121.94 19.6C121.028 18.736 119.912 18.304 118.592 18.304C117.944 18.304 117.332 18.424 116.756 18.664C116.204 18.88 115.712 19.192 115.28 19.6C114.848 20.008 114.488 20.5 114.2 21.076C113.936 21.652 113.78 22.288 113.732 22.984H123.524ZM142.662 19.312C141.198 19.336 139.89 19.624 138.738 20.176C137.586 20.704 136.758 21.508 136.254 22.588V34H131.43V15.136H135.858V19.168C136.194 18.52 136.59 17.944 137.046 17.44C137.502 16.912 137.994 16.456 138.522 16.072C139.05 15.688 139.578 15.4 140.106 15.208C140.658 14.992 141.186 14.884 141.69 14.884C141.954 14.884 142.146 14.884 142.266 14.884C142.41 14.884 142.542 14.896 142.662 14.92V19.312Z" fill="black"/>
<path d="M159.7 13L173.123 36.25H146.277L159.7 13Z" fill="#FF993C"/>
<path d="M160 33L173.423 9.75L146.577 9.75L160 33Z" fill="#FF993C"/>
</svg>
